<svg xmlns="http://www.w3.org/2000/svg" width="63" height="86" viewBox="0 0 63 86" fill="none">
  <path d="M62.745 4.72905V56.3496C62.745 72.6021 49.5369 85.8256 33.2965 85.8256H3.7622C1.83065 85.8256 0.257812 84.2513 0.257812 82.318V33.4409C0.257812 17.1854 13.469 3.96491 29.7063 3.96491H32.7569C33.0236 3.96491 33.2413 4.17973 33.2413 4.44979C33.2413 4.71984 33.0236 4.93466 32.7569 4.93466H29.7063C14.0025 4.93466 1.22665 17.7224 1.22665 33.4409V82.318C1.22665 83.7174 2.36412 84.8559 3.7622 84.8559H33.2965C49.0003 84.8559 61.7762 72.0681 61.7762 56.3496V4.72905C61.7762 4.45899 61.9938 4.24418 62.2606 4.24418C62.5273 4.24418 62.745 4.45899 62.745 4.72905Z" fill="#3C1913"/>
  <path d="M54.9667 9.86932H31.4386C17.513 9.86932 6.22416 21.1687 6.22416 35.1073V77.8498C6.22416 79.0773 7.21752 80.0747 8.4439 80.0747H31.8065C45.729 80.0747 57.0178 68.7753 57.0178 54.8398V11.9224C57.0178 10.793 56.0949 9.86932 54.9667 9.86932ZM14.4133 79.1049H13.5457C12.9509 79.1049 12.4603 78.6231 12.4572 78.0278C12.4419 76.4749 12.8589 75.008 13.4169 73.2281C13.5058 72.9397 13.5947 72.6665 13.6928 72.3934C14.0362 71.4421 14.4286 70.546 14.8732 69.7327C16.5043 66.7345 18.5861 65.1173 20.7874 63.4049C23.0103 61.6802 25.3066 59.8941 27.1125 56.6074C28.3726 54.3181 28.8723 52.2374 28.995 50.8657C29.0563 50.169 29.4058 49.5215 29.9546 49.0888C30.9664 48.294 31.6072 47.4194 31.8647 46.4742C31.9352 46.2011 31.9904 43.3808 32.0241 41.0362C32.0027 40.5207 32.1253 40.1524 32.3675 40.0051C32.5699 39.8824 32.8642 39.8977 33.1432 40.0481C33.4958 40.2476 33.7074 40.5943 33.7135 40.9871C33.7135 41.3124 33.6736 41.8771 33.6215 42.5277C33.4038 45.2282 33.042 49.7425 34.7804 51.685C35.1392 52.084 35.5224 52.4799 35.9271 52.8696L35.9976 52.9371C37.3589 56.3097 33.1402 64.1782 27.0113 67.4219L26.2755 67.8086C23.3138 69.3614 19.9535 71.1229 17.5498 74.4096C16.6729 75.6065 15.9831 76.9107 15.4496 78.3807C15.2932 78.8165 14.8763 79.1049 14.4133 79.1049ZM23.4977 40.7999C23.4947 40.7539 23.4885 40.7079 23.4824 40.6618H23.4977C23.6388 33.8828 25.4507 29.1139 28.8877 26.487C32.0395 24.0779 35.8259 24.1025 37.7207 24.3112C37.7697 24.3173 37.8157 24.3204 37.8617 24.3265C37.9506 24.3388 38.0303 24.348 38.1101 24.3603C38.1131 24.3633 38.1193 24.3633 38.1223 24.3633C38.1223 24.3633 38.1244 24.3633 38.1285 24.3633C38.3768 24.3971 38.5761 24.4339 38.711 24.4615C38.711 24.4615 38.713 24.4615 38.7171 24.4615C38.7907 24.4677 38.8643 24.4738 38.9348 24.48C46.4403 25.152 48.3749 31.0871 48.7949 32.9284C49.2211 34.7943 49.1138 35.8469 49.0003 36.9608C48.9298 37.6452 48.8593 38.351 48.9114 39.2379C48.9543 40.2905 48.9635 41.1713 48.9697 41.693C48.9727 41.9937 48.9942 42.2822 49.0157 42.543C49.0218 42.6228 49.0279 42.6965 49.031 42.7671C49.0892 43.5343 49.0984 44.0682 49.0862 44.4181C48.9942 44.3475 48.9053 44.2769 48.8164 44.2125C48.6355 44.0713 48.381 43.8749 48.2553 43.7399C48.2093 43.6877 48.1817 43.6202 48.1756 43.5496C48.0591 41.3799 47.5563 39.9683 47.311 39.2901C47.2773 39.1888 47.2466 39.106 47.2251 39.0384L47.1883 38.9525C47.1638 38.9095 44.708 34.6163 37.9445 37.2002C37.3589 37.4242 36.9849 37.7649 36.8346 38.2099C36.6507 38.75 36.8806 39.2287 36.9511 39.3515C38.4289 42.3988 41.3232 42.5921 43.2363 42.7179L43.5123 42.7364C44.9195 42.8346 44.9349 43.611 44.9318 43.6877V52.8328L44.9625 57.2856C44.9625 57.7582 44.4413 58.0375 44.0519 57.7705C43.6686 57.5035 43.2517 57.2273 42.8132 56.9358L42.6661 56.8345C40.6548 55.4873 38.6957 54.137 36.8959 52.4553L36.7396 52.308C36.3042 51.8968 35.8872 51.4641 35.504 51.0344C34.0446 49.4049 34.3941 44.9827 34.5873 42.6044C34.6425 41.9047 34.6854 41.3493 34.6823 40.9779C34.6731 40.2445 34.2623 39.5601 33.6062 39.198C33.0267 38.8789 32.3583 38.8697 31.8617 39.1796C31.5397 39.376 31.0124 39.8854 31.0553 41.0485C31.0308 42.8929 30.9695 45.931 30.9265 46.2195C30.7855 46.735 30.4912 47.2322 30.0405 47.7109C29.5898 48.1897 28.9827 48.6469 28.2254 49.0796C26.4564 50.0923 24.2428 50.749 22.7037 51.1173C22.2867 51.2155 21.3056 51.4948 20.5452 51.7618C19.9228 51.9827 19.512 52.1208 19.6592 51.7188C21.4527 46.9069 23.651 42.4602 23.4977 40.7999ZM22.5902 35.8714C22.0659 33.1033 21.8513 29.9578 23.6878 24.8421C25.2453 20.4997 28.4676 17.5874 33.2628 16.1819C39.41 14.3805 46.7131 15.6141 50.7019 17.5137C51.6371 17.9557 52.0663 19.0512 51.6984 20.0179C51.1741 21.3989 50.4168 23.2463 49.868 24.4462C49.6687 24.8758 49.1291 25.0017 48.7551 24.7163C45.1863 22.0218 41.1883 21.9206 39.3364 22.5712C39.0145 22.6847 38.7447 22.8228 38.527 22.9854C38.2204 23.2095 37.8587 23.3384 37.4815 23.3015C35.3538 23.1082 31.5735 23.2187 28.3082 25.7075C25.5121 27.8434 23.7185 31.2498 22.9489 35.8622C22.9152 36.0648 22.627 36.0709 22.5902 35.8714ZM47.4857 48.1989C47.5103 48.2326 47.5471 48.2694 47.5624 48.3063C47.5655 48.3155 47.5655 48.3247 47.5685 48.3308C47.5685 48.3615 47.5563 48.3922 47.5379 48.4167C47.5287 48.429 47.3907 48.607 47.3876 48.607C47.5501 48.7451 47.8046 49.0366 47.823 49.2361C47.8261 49.2791 47.8199 49.3159 47.7709 49.3711C47.1853 50.0432 46.9431 50.3225 47.3202 50.9209C47.3508 50.9731 47.3938 51.0375 47.4367 51.1234L47.4704 51.1879C47.7464 51.7157 47.8046 51.9121 47.4122 52.2098C47.219 52.3571 46.9676 52.4614 46.6855 52.5136L46.1521 52.6026C46.0325 52.6241 45.9282 52.532 45.9252 52.4154L45.9007 43.7337C45.9068 43.6018 45.8976 43.0617 45.4684 42.5645C45.2721 42.3374 45.0207 42.1564 44.7203 42.0275H44.6896C44.4351 41.917 44.1408 41.8403 43.8127 41.8004C43.8066 41.8004 43.8035 41.7942 43.7943 41.7912C43.7238 41.782 43.6533 41.7758 43.5797 41.7697L43.3007 41.7482C41.406 41.6254 39.0482 41.4689 37.8157 38.9157L37.7973 38.8789C37.7973 38.8789 37.6931 38.6886 37.7544 38.5167C37.8249 38.3203 38.0825 38.1884 38.291 38.1055C43.9906 35.9236 46.0877 39.0077 46.3207 39.3852C46.3452 39.4558 46.3697 39.5294 46.4004 39.6123C46.6304 40.2598 47.1117 41.607 47.2129 43.6816C47.2313 44.0437 47.4459 44.3229 47.7494 44.593C47.915 44.7434 47.8874 45.0042 47.6942 45.1178C47.498 45.2344 47.3355 45.3909 47.2497 45.5996C47.1516 45.8481 47.124 46.241 47.5777 46.7228C47.6145 46.7626 47.9579 47.1125 48.102 47.2629C48.1388 47.2997 48.1327 47.358 48.0928 47.3887C47.8966 47.5299 47.3815 47.8459 47.2374 47.9534C47.2773 47.9227 47.4551 48.159 47.4857 48.1989ZM21.8145 43.9301C20.9346 46.4742 19.2698 50.4053 18.6106 51.9981C18.0066 53.4588 13.5426 56.8008 11.5007 60.2747C11.4117 60.4281 11.1787 60.3606 11.1818 60.1857C11.3412 54.3641 13.1808 49.543 16.5717 46.1213C18.0587 44.6175 19.5917 43.6386 20.766 43.031C21.3638 42.721 22.0353 43.2918 21.8145 43.9301ZM11.6509 62.1466C13.2421 58.2554 17.004 55.3185 18.7486 53.7596C18.8804 53.6429 19.0092 53.5478 19.1196 53.4588C19.3403 53.2747 19.5917 53.1304 19.8615 53.0322C20.1865 52.9126 20.6157 52.7591 20.8396 52.6885C21.7869 52.3847 22.6055 52.1362 22.9275 52.0594C24.0006 51.8017 25.3864 51.4088 26.7446 50.8595C27.3639 50.6079 28.0139 51.1388 27.8882 51.7924C27.6736 52.9156 27.2106 54.4193 26.2632 56.1379C24.5524 59.2527 22.4338 60.8976 20.1926 62.6438C18.0097 64.3408 15.7531 66.0901 14.0239 69.2724C13.8247 69.6346 13.6346 70.0089 13.4567 70.4018C13.2758 70.7976 12.7362 70.8406 12.494 70.4754C10.7526 67.8424 10.4705 65.0467 11.6509 62.1466ZM23.8626 79.1049H17.8472C17.0378 79.1049 16.5104 78.2641 16.8446 77.5276C17.2616 76.613 17.7552 75.7722 18.3316 74.9835C20.6035 71.8779 23.7154 70.2452 26.7231 68.6679L27.462 68.2781C32.6189 65.5469 36.8469 59.5197 37.2179 55.1221C37.2547 54.6955 37.7391 54.4777 38.0733 54.7416C39.3364 55.7482 40.6456 56.6504 41.9793 57.5434C41.9824 57.5434 41.9854 57.5465 41.9854 57.5495C44.2604 64.7613 41.4949 70.0243 33.5449 73.6394C32.3767 74.1703 29.648 75.7998 26.8212 78.0615C25.9812 78.7336 24.9387 79.1049 23.8626 79.1049ZM56.049 54.8398C56.049 68.2413 45.1955 79.1049 31.8065 79.1049H30.2643C29.1575 79.1049 28.7129 77.6718 29.6266 77.0488C31.506 75.7691 33.1248 74.8945 33.9465 74.5201C41.4121 71.1291 44.6129 66.133 43.5 59.6517C43.4203 59.1883 43.9507 58.8722 44.3278 59.1515C44.6467 59.3878 44.9195 59.6057 45.1372 59.8082L45.4193 60.0721C45.6217 60.2624 45.9528 60.1181 45.9497 59.842L45.9313 54.3273C45.9313 53.9222 46.2226 53.5754 46.6242 53.5048L46.8542 53.465C47.2865 53.3913 47.685 53.2225 48.0039 52.977C49.0739 52.1576 48.568 51.1971 48.3258 50.7337L48.2952 50.6723C48.243 50.5741 48.1909 50.4913 48.148 50.4238C48.2338 50.3194 48.3779 50.1506 48.5006 50.0064C48.7183 49.7609 48.8133 49.4632 48.7857 49.1502C48.7581 48.8341 48.6048 48.5456 48.4393 48.3247H48.4423C48.755 48.1252 49.1199 47.8459 49.1659 47.4286C49.2119 46.9867 48.9022 46.6737 48.568 46.3484C48.4822 46.2624 48.2246 45.9893 48.1817 45.931C48.3442 45.8727 49.0249 45.6855 49.0678 45.6732C49.0678 45.6732 49.0698 45.6732 49.0739 45.6732C49.2671 45.7837 49.4633 45.7653 49.6013 45.7039C49.8895 45.5658 50.2114 45.4154 49.9784 42.4632C49.96 42.2147 49.9416 41.9507 49.9385 41.6807C49.9324 41.1866 49.9232 40.266 49.8803 39.1857C49.8312 38.3694 49.8956 37.7311 49.963 37.056C50.0795 35.9144 50.1991 34.7329 49.7362 32.7075C48.565 27.5611 44.7601 24.1976 39.4652 23.5593C39.5265 23.5317 39.5879 23.5071 39.6584 23.4826C41.6206 22.7921 45.8731 23.2217 49.1843 26.3427H49.1874L49.3652 26.3857C49.6442 26.444 49.9324 26.3366 50.0918 26.1003C50.3647 25.6891 50.8215 24.7715 51.7045 22.6295C52.3913 20.9723 53.17 18.9377 53.2681 18.373C53.308 18.1214 53.2436 17.9311 53.0811 17.8053C49.8404 15.3042 40.8204 12.9565 32.9869 15.249C27.9526 16.7251 24.4206 19.9289 22.7772 24.5107C20.4992 30.8508 21.2443 34.2818 21.9586 37.6053C22.1395 38.4339 22.3756 39.9928 22.4768 40.7754C22.5166 41.0731 22.3511 41.3585 22.0751 41.4751C21.0327 41.9078 18.4144 42.8929 15.9218 45.4001C13.0459 48.2848 9.75307 53.6368 10.2467 62.8187C10.259 63.0918 10.2314 63.365 10.1762 63.6319C9.55072 66.5013 10.2651 69.2602 12.3039 71.8625C12.54 72.1633 12.6075 72.5683 12.491 72.9335C11.9268 74.7288 11.4884 76.3 11.4884 77.9756C11.4884 78.0953 11.4915 78.2119 11.4945 78.3316C11.5099 78.752 11.1849 79.1019 10.7648 79.1019H8.43164C7.751 79.1019 7.193 78.5464 7.193 77.859V35.1042C7.193 21.7027 18.0465 10.8391 31.4355 10.8391H54.9636C55.5615 10.8391 56.049 11.327 56.049 11.9254V54.8398Z" fill="#3C1913"/>
  <path d="M45.729 39.376C45.729 39.2226 45.6032 39.0998 45.453 39.1029L42.0743 39.1274C41.9425 39.1274 41.8383 39.2348 41.8383 39.3637V39.8394C41.8444 39.9806 41.9609 40.0972 42.1019 40.0941L43.2363 40.088C43.2455 40.4931 43.4663 40.846 43.7913 41.0485C43.9844 41.1743 44.2174 41.248 44.4627 41.248C44.5056 41.248 44.5424 41.2449 44.5823 41.2418C45.1985 41.1835 45.683 40.6833 45.6922 40.0696H45.7351L45.729 39.376ZM44.4627 40.4562C44.2573 40.4562 44.0917 40.3028 44.0672 40.1033H44.8582C44.8337 40.3028 44.6651 40.4562 44.4627 40.4562Z" fill="#3C1913"/>
  <path d="M37.7912 0.362121V7.04601C37.7912 7.18103 37.6808 7.28844 37.549 7.28844H37.0952C36.9603 7.28844 36.853 7.18103 36.853 7.04601V1.02499H36.8316L35.8597 1.54975C35.7217 1.62647 35.55 1.54975 35.5101 1.39631L35.4458 1.1416C35.4182 1.03419 35.4672 0.923714 35.5653 0.871544L36.9113 0.150372C36.945 0.131959 36.9849 0.119684 37.0247 0.119684H37.549C37.6808 0.119684 37.7912 0.230161 37.7912 0.362121Z" fill="#3C1913"/>
  <path d="M42.804 0C41.3385 0 40.3574 1.1907 40.3574 2.54712C40.3574 3.77158 41.1822 4.74132 42.4729 4.74132C43.1904 4.74132 43.7606 4.45592 44.1592 3.97105H44.1929C44.058 4.81804 43.7177 5.44715 43.2425 5.87679C42.8378 6.26346 42.3074 6.49669 41.7463 6.57341C41.5317 6.59489 41.3569 6.61023 41.2036 6.6133C41.0687 6.61637 40.9645 6.72071 40.9645 6.85574V7.15955C40.9645 7.29458 41.0718 7.40506 41.2067 7.40199C41.3968 7.39892 41.6144 7.38051 41.8567 7.34368C42.6262 7.25469 43.3866 6.92632 43.9384 6.38621C44.6436 5.70186 45.171 4.59709 45.171 3.02279C45.171 1.1907 44.2696 0 42.804 0ZM44.104 3.25295C43.8495 3.68258 43.3436 4.00174 42.6937 4.00174C41.8567 4.00174 41.3171 3.3757 41.3171 2.4796C41.3171 1.4669 41.8996 0.739585 42.7274 0.739585C43.7392 0.739585 44.1929 1.67557 44.1929 2.90003C44.1929 3.05347 44.1592 3.16395 44.104 3.25295Z" fill="#3C1913"/>
  <path d="M49.0954 0.362121V7.04601C49.0954 7.18103 48.985 7.28844 48.8532 7.28844H48.3994C48.2676 7.28844 48.1572 7.18103 48.1572 7.04601V1.02499H48.1357L47.1638 1.54975C47.0259 1.62647 46.8542 1.54975 46.8143 1.39631L46.7499 1.1416C46.7223 1.03419 46.7714 0.923714 46.8695 0.871544L48.2154 0.150372C48.2492 0.131959 48.289 0.119684 48.3289 0.119684H48.8532C48.985 0.119684 49.0954 0.230161 49.0954 0.362121Z" fill="#3C1913"/>
  <path d="M56.1471 5.25995C56.1471 6.40769 55.2549 7.4112 53.5349 7.4112C52.8512 7.4112 52.241 7.22707 51.8547 7.03066C51.7474 6.97542 51.6984 6.8496 51.7413 6.73606L51.8425 6.44145C51.8915 6.30949 52.0417 6.24198 52.1705 6.30335C52.4986 6.45986 53.0014 6.62865 53.5226 6.62865C54.7674 6.62865 55.1537 5.83382 55.1445 5.23847C55.1322 4.23497 54.2278 3.80533 53.2927 3.80533H52.9953C52.8604 3.80533 52.7531 3.69486 52.7531 3.5629V3.31739C52.7531 3.18543 52.8604 3.07802 52.9953 3.07802H53.2927C53.9978 3.07802 54.89 2.71284 54.89 1.86277C54.89 1.2889 54.5252 0.782549 53.633 0.782549C53.1884 0.782549 52.7561 0.935989 52.4403 1.10784C52.3116 1.17843 52.1491 1.11091 52.1 0.972815L52.0142 0.733448C51.9743 0.619901 52.0142 0.500217 52.1184 0.438841C52.52 0.205611 53.1547 0 53.82 0C55.2303 0 55.8711 0.837787 55.8711 1.70933C55.8711 2.44892 55.4296 3.07802 54.5497 3.39718V3.41866C55.4296 3.59359 56.1471 4.25645 56.1471 5.25995Z" fill="#3C1913"/>
</svg>