<svg xmlns="http://www.w3.org/2000/svg" width="144" height="22" viewBox="0 0 144 22" fill="none">
  <path d="M20.7728 0.154927C20.1852 0.154927 20.1536 0.15493 19.8756 0.711411L13.0335 15.0598L11.8584 17.6936L10.7117 15.0914L4.79833 2.69704C3.90121 0.806266 3.12729 0.154927 1.67105 0.154927H0V0.464789C0.837102 0.464789 1.39306 1.14457 1.39306 2.32394V21.8451H3.06411V6.35211L3.00409 2.38718L11.5489 20.2357H12.1996L20.7128 2.38718L20.6496 6.35211V21.8451H22.3206V0.154927H20.7728Z" fill="#3C1913"/>
  <path d="M36.9336 0.154927H35.0762L25.8807 21.8451H27.7381L30.1199 16.2075C30.3694 15.6479 30.401 15.6479 30.9886 15.6479H41.018C41.4308 15.6479 41.7203 15.8344 41.8867 16.2075L44.2685 21.8451H46.1259L36.9336 0.154927ZM30.957 14.1934L36.0049 2.20063L41.0496 14.1934H30.957Z" fill="#3C1913"/>
  <path d="M61.2348 14.7183C60.7989 14.1302 60.5209 13.7571 60.1798 13.5421C64.1757 12.7358 65.6604 10.1337 65.6604 6.90859C65.6604 2.57056 63.4618 0.154927 57.2704 0.154927H48.2929V0.464789C49.13 0.464789 49.686 1.14457 49.686 2.32394V21.8451H51.3886V13.8204H57.2704C58.3223 13.8204 58.6319 14.0385 58.9415 14.4717L64.0494 21.4751C64.2368 21.7218 64.4853 21.8451 64.7949 21.8451H66.4659L61.2348 14.7183ZM57.798 12.3627H51.3886V1.61252H57.798C61.854 1.61252 63.9578 3.34521 63.9578 6.90859C63.9578 10.472 61.8824 12.3627 57.798 12.3627Z" fill="#3C1913"/>
  <path d="M70.7967 0.154927H69.4037V0.464789C70.2408 0.464789 70.7967 1.14457 70.7967 2.32394V21.8451H72.4994V1.61252C72.4709 0.743022 71.757 0.154927 70.7967 0.154927Z" fill="#3C1913"/>
  <path d="M94.3272 0.154927V15.6479L94.482 19.6476L82.5004 2.69704C81.2305 0.897959 80.3934 0.154927 79.0003 0.154927H77.6073V0.464789C78.4444 0.464789 79.0003 1.14457 79.0003 2.32394V21.8451H80.703V6.35211L80.5798 2.94366L93.6765 21.4751C93.8618 21.7218 94.1092 21.8451 94.4188 21.8451H96.0298V0.154927H94.3272Z" fill="#3C1913"/>
  <path d="M111.104 0C105.222 0 101.444 2.57056 101.444 8.2745V13.7287C101.444 19.4294 105.222 22 111.104 22C116.986 22 120.764 19.4294 120.764 13.7287V8.2745C120.764 2.57056 116.986 0 111.104 0ZM119.061 13.6654C119.153 18.4999 116.12 20.5456 111.104 20.5456C106.088 20.5456 103.147 18.4999 103.147 13.6654V8.33458C103.147 3.50014 106.088 1.45443 111.104 1.45443C116.12 1.45443 119.061 3.50014 119.061 8.33458V13.6654Z" fill="#3C1913"/>
  <path d="M142.68 0.154927C142.371 0.154927 142.155 0.299315 142.033 0.588096L135.933 14.7183L133.671 20.2958L131.381 14.7183L125.622 1.39436C125.253 0.524855 124.757 0.154927 123.86 0.154927H122.466V0.464789C123.086 0.464789 123.61 1.02126 124.169 2.32394L132.588 21.8451H134.445L143.795 0.154927H142.68Z" fill="#3C1913"/>
</svg>