<svg width="29" height="22" viewBox="0 0 29 22" fill="none" xmlns="http://www.w3.org/2000/svg">
<path d="M26.4622 10.1521C26.5086 10.0718 26.5073 9.97817 26.4622 9.87264M26.4622 10.1521L21.6044 18.5661C20.6519 20.2159 17.9729 22.1888 14.3434 20.0933C10.7139 17.9978 9.6525 15.0233 10.5976 14.7701M26.4622 10.1521C25.5155 11.7919 15.6463 14.7701 10.5976 14.7701M26.4622 10.1521L26.4622 9.87264M26.4622 9.87264C25.673 8.02662 11.4641 2.53934 3.96034 1.12015C-3.97233 -0.380159 5.23225 12.6332 8.20187 14.3477C8.71174 14.6421 9.55112 14.7701 10.5976 14.7701M26.4622 9.87264L26.4619 5.01242M26.4487 10.2221L28.187 6.75278" stroke="#3C1913"/>
<path d="M15.4835 16.2116C15.4898 16.218 15.4999 16.2176 15.5058 16.2116C15.5159 16.2016 15.5159 16.1852 15.5058 16.1752C15.4895 16.1588 15.4634 16.1588 15.4471 16.1752C15.4207 16.2016 15.4207 16.244 15.4471 16.2704C15.4895 16.3128 15.5586 16.3128 15.601 16.2704C15.6698 16.2016 15.6698 16.09 15.601 16.0212C15.4898 15.91 15.3091 15.91 15.1979 16.0212C15.0179 16.2012 15.0179 16.4935 15.1979 16.6735C15.4895 16.9651 15.9621 16.9647 16.2533 16.6735C16.7249 16.202 16.7249 15.4366 16.2533 14.9651C15.4906 14.2024 14.2522 14.2024 13.4895 14.9651C12.2552 16.1994 12.2552 18.2031 13.4895 19.4373C15.4869 21.4347 18.7285 21.4343 20.7255 19.4373C23.9572 16.2057 23.9568 10.9603 20.7255 7.72908C15.4969 2.50046 7.00988 2.50046 1.78125 7.72908" stroke="#3C1913" stroke-opacity="0.5" stroke-miterlimit="10"/>
</svg>
