<svg width="24" height="24" viewBox="0 0 24 24" fill="none" xmlns="http://www.w3.org/2000/svg">
<path d="M19.1491 18.3521C19.2044 18.4036 19.2487 18.4657 19.2794 18.5347C19.3102 18.6037 19.3267 18.6782 19.328 18.7537C19.3294 18.8293 19.3155 18.9043 19.2872 18.9743C19.2589 19.0444 19.2168 19.108 19.1634 19.1614C19.11 19.2148 19.0463 19.2569 18.9763 19.2852C18.9063 19.3135 18.8312 19.3274 18.7557 19.3261C18.6802 19.3248 18.6057 19.3082 18.5367 19.2775C18.4677 19.2467 18.4056 19.2024 18.3541 19.1471L12.0016 12.7956L5.64909 19.1471C5.54246 19.2465 5.40143 19.3006 5.2557 19.298C5.10998 19.2955 4.97094 19.2364 4.86788 19.1334C4.76482 19.0303 4.70578 18.8913 4.70321 18.7455C4.70064 18.5998 4.75473 18.4588 4.85409 18.3521L11.2057 11.9996L4.85409 5.64714C4.75473 5.54051 4.70064 5.39947 4.70321 5.25375C4.70578 5.10802 4.76482 4.96898 4.86788 4.86592C4.97094 4.76286 5.10998 4.70383 5.2557 4.70126C5.40143 4.69869 5.54246 4.75278 5.64909 4.85214L12.0016 11.2037L18.3541 4.85214C18.4607 4.75278 18.6018 4.69869 18.7475 4.70126C18.8932 4.70383 19.0323 4.76286 19.1353 4.86592C19.2384 4.96898 19.2974 5.10802 19.3 5.25375C19.3025 5.39947 19.2485 5.54051 19.1491 5.64714L12.7975 11.9996L19.1491 18.3521Z" fill="#3C1913" fill-opacity="0.5"/>
</svg>
