<svg width="32" height="32" viewBox="0 0 32 32" fill="none" xmlns="http://www.w3.org/2000/svg">
<path d="M15.9987 22.6673C17.7668 22.6673 19.4625 21.9649 20.7127 20.7147C21.963 19.4645 22.6654 17.7688 22.6654 16.0007C22.6654 14.2325 21.963 12.5368 20.7127 11.2866C19.4625 10.0364 17.7668 9.33398 15.9987 9.33398C14.2306 9.33398 12.5349 10.0364 11.2847 11.2866C10.0344 12.5368 9.33203 14.2325 9.33203 16.0007C9.33203 17.7688 10.0344 19.4645 11.2847 20.7147C12.5349 21.9649 14.2306 22.6673 15.9987 22.6673Z" stroke="#394E49" stroke-width="1.8" stroke-linecap="round" stroke-linejoin="round"/>
<path d="M1 22.6667V9.33333C1 7.1232 1.87797 5.00358 3.44078 3.44078C5.00358 1.87797 7.1232 1 9.33333 1H22.6667C24.8768 1 26.9964 1.87797 28.5592 3.44078C30.122 5.00358 31 7.1232 31 9.33333V22.6667C31 24.8768 30.122 26.9964 28.5592 28.5592C26.9964 30.122 24.8768 31 22.6667 31H9.33333C7.1232 31 5.00358 30.122 3.44078 28.5592C1.87797 26.9964 1 24.8768 1 22.6667Z" stroke="#394E49" stroke-width="1.8"/>
<path d="M25.168 6.85036L25.1846 6.83203" stroke="#394E49" stroke-width="1.8" stroke-linecap="round" stroke-linejoin="round"/>
</svg>
